<svg width="974" height="119" viewBox="0 0 974 119" fill="none" xmlns="http://www.w3.org/2000/svg">
<path fill-rule="evenodd" clip-rule="evenodd" d="M16.7664 41.5325L0 42.6875L11.111 55.3568L7.02163 71.7373L22.4481 65.0325L36.6874 74L35.11 57.1878L48 46.3514L31.5992 42.6648L25.3239 27L16.7664 41.5325Z" fill="#FB8547"/>
<path fill-rule="evenodd" clip-rule="evenodd" d="M78.6629 99.596L68 101.432L75.9818 108.559L74.4822 119L83.9057 113.81L93.6415 118.426L91.4827 108.092L99 100.503L88.2426 99.3088L83.154 90L78.6629 99.596Z" fill="#114837"/>
<path fill-rule="evenodd" clip-rule="evenodd" d="M141.48 82L142.982 71.5574L135 64.4337L145.661 62.596L150.152 53L155.241 62.3088L166 63.5026L158.481 71.0919L160.64 81.4256L150.906 76.8078L141.48 82Z" fill="#F7B8AE"/>
<path fill-rule="evenodd" clip-rule="evenodd" d="M235 58.011L249.094 50.0314L250.453 34L262.463 44.8217L278.265 41.1499L271.593 55.8163L280 69.5789L263.867 67.8208L253.261 80L249.961 64.2477L235 58.011Z" fill="#80A08D"/>
<path fill-rule="evenodd" clip-rule="evenodd" d="M235 58.011L249.094 50.0314L250.453 34L262.463 44.8217L278.265 41.1499L271.593 55.8163L280 69.5789L263.867 67.8208L253.261 80L249.961 64.2477L235 58.011Z" fill="#80A08D"/>
<path fill-rule="evenodd" clip-rule="evenodd" d="M860 80.011L874.094 72.0314L875.453 56L887.463 66.8217L903.265 63.1499L896.593 77.8163L905 91.5789L888.867 89.8208L878.261 102L874.961 86.2477L860 80.011Z" fill="#C9CFDA"/>
<path fill-rule="evenodd" clip-rule="evenodd" d="M361.996 9.5696L353 13.2504L361.363 18.2233L362.05 28L369.319 21.5031L378.737 23.8651L374.863 14.877L380 6.56152V6.55962L370.338 7.50214L364.094 0L361.996 9.5696Z" fill="#F7B8AE"/>
<path fill-rule="evenodd" clip-rule="evenodd" d="M665.731 19L662.254 26.6106L654 28.0666L660.179 33.718L659.017 42L666.314 37.8821L673.85 41.5444L672.18 33.3488L678 27.3282L669.67 26.3813L665.731 19Z" fill="#F6D500"/>
<path fill-rule="evenodd" clip-rule="evenodd" d="M709 87.7912L719.962 81.5463L721.019 69L730.36 77.4692L742.65 74.5956L737.461 86.0736L744 96.8443L731.452 95.4684L723.203 105L720.636 92.6721L709 87.7912Z" fill="#80A08D"/>
<path fill-rule="evenodd" clip-rule="evenodd" d="M956.662 73.8865L948 77.3029L956.054 81.9205L956.715 91L963.713 84.9652L972.786 87.1602L969.055 78.8152L974 71.0924L964.698 71.9667L958.682 65L956.662 73.8865Z" fill="#F6D500"/>
<path fill-rule="evenodd" clip-rule="evenodd" d="M807.039 65L806.504 57.3173L800 53.4103L806.996 50.52L808.628 43L813.486 48.8956L821 48.1551L817.005 54.6897L820.017 61.7514L812.691 59.8956L807.039 65Z" fill="#F7B8AE"/>
</svg>
